<?xml version="1.0" standalone="no"?>
<!DOCTYPE svg PUBLIC "-//W3C//DTD SVG 20010904//EN"
 "http://www.w3.org/TR/2001/REC-SVG-20010904/DTD/svg10.dtd">
<svg version="1.0" xmlns="http://www.w3.org/2000/svg"
 width="200.000000pt" height="200.000000pt" viewBox="0 0 200.000000 200.000000"
 preserveAspectRatio="xMidYMid meet">

<g transform="translate(0.000000,200.000000) scale(0.100000,-0.100000)"
fill="#000000" stroke="none">
<path d="M866 1709 c-126 -30 -267 -142 -327 -261 -44 -86 -59 -149 -59 -243
0 -143 43 -257 134 -353 100 -106 210 -159 350 -169 153 -10 292 43 401 152
281 281 158 755 -224 869 -60 18 -209 20 -275 5z"/>
<path d="M493 631 c-172 -95 -326 -317 -373 -539 -6 -26 -12 -57 -15 -69 l-5
-23 890 0 890 0 0 23 c0 76 -84 285 -157 393 -54 80 -166 183 -236 218 l-57
28 -47 -30 c-116 -74 -265 -122 -382 -122 -119 0 -277 48 -378 115 -29 19 -58
35 -65 35 -7 0 -36 -13 -65 -29z"/>
</g>
</svg>
